<?xml version="1.0" encoding="utf-8"?>
<!-- Generator: Adobe Illustrator 26.5.0, SVG Export Plug-In . SVG Version: 6.00 Build 0)  -->
<svg version="1.1" id="Layer_1" xmlns="http://www.w3.org/2000/svg" xmlns:xlink="http://www.w3.org/1999/xlink" x="0px" y="0px"
	 viewBox="0 0 86 86" style="enable-background:new 0 0 86 86;" xml:space="preserve">
<style type="text/css">
	.st0{fill:#FFFFFF;}
</style>
<g transform="matrix(1.01619,0,0,1.01619,44,43.8384)">
	<path class="st0" d="M-0.8-43.2c-11.4,0-12.8,0-17.3,0.3c-4.5,0.2-7.5,0.9-10.2,2c-2.8,1.1-5.1,2.5-7.4,4.8s-3.8,4.7-4.8,7.4
		c-1,2.7-1.7,5.7-2,10.2c-0.2,4.5-0.3,5.9-0.3,17.3c0,11.4,0,12.8,0.3,17.3c0.2,4.5,0.9,7.5,2,10.2c1.1,2.8,2.5,5.1,4.8,7.4
		c2.3,2.3,4.7,3.8,7.4,4.8c2.7,1,5.7,1.7,10.2,2c4.5,0.2,5.9,0.3,17.3,0.3c11.4,0,12.8,0,17.3-0.3c4.5-0.2,7.5-0.9,10.2-2
		c2.8-1.1,5.1-2.5,7.4-4.8c2.3-2.3,3.8-4.7,4.8-7.4c1-2.7,1.7-5.7,2-10.2c0.2-4.5,0.3-5.9,0.3-17.3c0-11.4,0-12.8-0.3-17.3
		c-0.2-4.5-0.9-7.5-2-10.2c-1.1-2.8-2.5-5.1-4.8-7.4c-2.3-2.3-4.7-3.8-7.4-4.8c-2.7-1-5.7-1.7-10.2-2C12-43.1,10.6-43.2-0.8-43.2z
		 M-0.8-35.6c11.2,0,12.5,0,17,0.2c4.1,0.2,6.3,0.9,7.8,1.4c2,0.8,3.4,1.7,4.8,3.1c1.5,1.5,2.4,2.9,3.1,4.8c0.6,1.5,1.3,3.7,1.4,7.8
		c0.2,4.4,0.2,5.8,0.2,17c0,11.2,0,12.5-0.2,17c-0.2,4.1-0.9,6.3-1.4,7.8c-0.8,2-1.7,3.4-3.1,4.8c-1.5,1.5-2.9,2.4-4.8,3.1
		c-1.5,0.6-3.7,1.3-7.8,1.4c-4.4,0.2-5.8,0.2-17,0.2c-11.2,0-12.5,0-17-0.2c-4.1-0.2-6.3-0.9-7.8-1.4c-2-0.8-3.4-1.7-4.8-3.1
		c-1.5-1.5-2.4-2.9-3.1-4.8c-0.6-1.5-1.3-3.7-1.4-7.8c-0.2-4.4-0.2-5.8-0.2-17c0-11.2,0-12.5,0.2-17c0.2-4.1,0.9-6.3,1.4-7.8
		c0.8-2,1.7-3.4,3.1-4.8c1.5-1.5,2.9-2.4,4.8-3.1c1.5-0.6,3.7-1.3,7.8-1.4C-13.3-35.5-12-35.6-0.8-35.6z"/>
	<path class="st0" d="M-0.8,12.8c-7.7,0-14-6.3-14-14c0-7.7,6.3-14,14-14c7.7,0,14,6.3,14,14C13.2,6.6,6.9,12.8-0.8,12.8z
		 M-0.8-22.7c-11.9,0-21.6,9.7-21.6,21.6c0,11.9,9.7,21.6,21.6,21.6c11.9,0,21.6-9.7,21.6-21.6C20.8-13.1,11.1-22.7-0.8-22.7z"/>
	<path class="st0" d="M26.7-23.6c0,2.8-2.3,5-5,5c-2.8,0-5-2.3-5-5s2.3-5,5-5C24.4-28.6,26.7-26.4,26.7-23.6z"/>
</g>
</svg>
